<svg width="158" height="42" viewBox="0 0 158 42" fill="none" xmlns="http://www.w3.org/2000/svg">
<path d="M11.654 34.071C9.97667 34.071 8.42267 33.8737 6.992 33.479C5.56133 33.0843 4.26633 32.5787 3.107 31.962C1.94767 31.3453 0.911667 30.6917 -0.000999974 30.001L3.329 24.636C4.365 25.598 5.364 26.338 6.326 26.856C7.288 27.374 8.287 27.7317 9.323 27.929C10.3837 28.1263 11.5307 28.225 12.764 28.225C13.8247 28.225 14.6757 28.0893 15.317 27.818C15.9583 27.522 16.279 27.152 16.279 26.708C16.279 26.338 15.9707 26.0543 15.354 25.857C14.7373 25.635 13.948 25.45 12.986 25.302C12.024 25.1293 11.0127 24.9197 9.952 24.673C8.44733 24.2783 7.04133 23.822 5.734 23.304C4.42667 22.786 3.366 22.083 2.552 21.195C1.76267 20.307 1.368 19.123 1.368 17.643C1.368 16.459 1.65167 15.423 2.219 14.535C2.78633 13.6223 3.53867 12.87 4.476 12.278C5.438 11.6613 6.52333 11.205 7.732 10.909C8.94067 10.613 10.1863 10.465 11.469 10.465C13.689 10.465 15.6007 10.7363 17.204 11.279C18.832 11.797 20.386 12.4877 21.866 13.351L18.499 18.457C17.759 17.939 16.908 17.495 15.946 17.125C15.0087 16.7303 14.059 16.4343 13.097 16.237C12.1597 16.015 11.284 15.904 10.47 15.904C9.582 15.904 8.879 16.0397 8.361 16.311C7.86767 16.5823 7.621 16.9647 7.621 17.458C7.621 17.754 7.92933 18.0377 8.546 18.309C9.18733 18.5557 10.396 18.8887 12.172 19.308C13.2327 19.5547 14.355 19.8137 15.539 20.085C16.723 20.3317 17.833 20.6893 18.869 21.158C19.9297 21.602 20.7807 22.2557 21.422 23.119C22.088 23.9577 22.421 25.08 22.421 26.486C22.421 28.854 21.4713 30.704 19.572 32.036C17.6727 33.3927 15.0333 34.071 11.654 34.071ZM25.348 33.553C25.348 32.0483 25.348 30.1243 25.348 27.781C25.3727 25.413 25.3974 22.786 25.422 19.9C25.4714 17.014 25.533 13.98 25.607 10.798C25.7057 7.616 25.8167 4.434 25.94 1.252L32.23 1.215C32.1314 2.621 32.0327 4.33533 31.934 6.358C31.8354 8.38067 31.749 10.5513 31.675 12.87C33.377 11.2913 35.3257 10.502 37.521 10.502C39.0257 10.502 40.2714 10.7733 41.258 11.316C42.2694 11.8587 43.0834 12.574 43.7 13.462C44.3167 14.3253 44.7854 15.275 45.106 16.311C45.4267 17.347 45.6487 18.3707 45.772 19.382C45.8954 20.3687 45.957 21.2443 45.957 22.009C45.957 23.637 45.9447 25.2527 45.92 26.856C45.8954 28.4593 45.8707 29.8653 45.846 31.074C45.846 32.2827 45.846 33.1337 45.846 33.627L39.371 33.664C39.4697 32.702 39.5314 31.592 39.556 30.334C39.6054 29.076 39.63 27.781 39.63 26.449C39.6547 25.0923 39.667 23.8097 39.667 22.601C39.667 18.605 38.7297 16.607 36.855 16.607C36.2877 16.607 35.6587 16.755 34.968 17.051C34.2774 17.347 33.6114 17.8157 32.97 18.457C32.3534 19.0983 31.86 19.9493 31.49 21.01C31.4654 22.638 31.453 24.2167 31.453 25.746C31.453 27.152 31.4654 28.4717 31.49 29.705C31.5394 30.9137 31.5764 32.1347 31.601 33.368L25.348 33.553ZM60.5804 34.034C58.6071 34.034 56.8804 33.7133 55.4004 33.072C53.9451 32.4307 52.7364 31.555 51.7744 30.445C50.8124 29.3103 50.0971 28.0153 49.6284 26.56C49.1598 25.1047 48.9254 23.5753 48.9254 21.972C48.9254 20.344 49.2091 18.8393 49.7764 17.458C50.3684 16.052 51.1701 14.831 52.1814 13.795C53.2174 12.759 54.4261 11.9573 55.8074 11.39C57.1888 10.798 58.6934 10.502 60.3214 10.502C62.0234 10.502 63.6021 10.798 65.0574 11.39C66.5128 11.982 67.7831 12.8083 68.8684 13.869C69.9538 14.9297 70.7924 16.1753 71.3844 17.606C72.0011 19.0367 72.3094 20.5907 72.3094 22.268C72.3094 25.9927 71.2858 28.891 69.2384 30.963C67.1911 33.0103 64.3051 34.034 60.5804 34.034ZM60.5434 28.04C62.3441 28.04 63.7131 27.5343 64.6504 26.523C65.6124 25.5117 66.0934 24.0563 66.0934 22.157C66.0934 20.455 65.5754 19.086 64.5394 18.05C63.5034 17.014 62.1468 16.496 60.4694 16.496C59.4581 16.496 58.5331 16.7673 57.6944 17.31C56.8558 17.828 56.1774 18.531 55.6594 19.419C55.1661 20.2823 54.9194 21.2443 54.9194 22.305C54.9194 23.2423 55.1044 24.155 55.4744 25.043C55.8691 25.931 56.4858 26.6587 57.3244 27.226C58.1631 27.7687 59.2361 28.04 60.5434 28.04ZM75.5056 41.508C75.3329 39.5347 75.2096 37.549 75.1356 35.551C75.0616 33.553 75.0246 31.2467 75.0246 28.632C75.0246 25.45 75.0739 22.2803 75.1726 19.123C75.2713 15.9657 75.4193 13.0797 75.6166 10.465L81.9806 10.65C81.9066 11.2173 81.8449 11.8217 81.7956 12.463C82.6836 11.871 83.6333 11.4393 84.6446 11.168C85.6806 10.8967 86.7289 10.761 87.7896 10.761C89.1463 10.761 90.4659 10.983 91.7486 11.427C93.0313 11.8463 94.1906 12.5247 95.2266 13.462C96.2626 14.3747 97.0766 15.5587 97.6686 17.014C98.2853 18.4693 98.5936 20.2207 98.5936 22.268C98.5936 24.2907 98.2853 26.0543 97.6686 27.559C97.0519 29.0637 96.2256 30.297 95.1896 31.259C94.1536 32.2457 92.9943 32.9733 91.7116 33.442C90.4289 33.9353 89.1093 34.182 87.7526 34.182C85.2613 34.182 83.0659 33.442 81.1666 31.962C81.2159 33.5407 81.2899 35.0577 81.3886 36.513C81.4873 37.993 81.6106 39.4977 81.7586 41.027L75.5056 41.508ZM86.7906 16.903C84.3486 16.903 82.5109 18.0993 81.2776 20.492C81.2036 21.972 81.1543 23.4767 81.1296 25.006C81.7216 25.7953 82.4863 26.486 83.4236 27.078C84.3609 27.6453 85.5573 27.929 87.0126 27.929C90.4906 27.929 92.2296 25.9433 92.2296 21.972C92.2296 20.9113 92.0323 20.048 91.6376 19.382C91.2429 18.716 90.7496 18.2103 90.1576 17.865C89.5656 17.495 88.9613 17.2483 88.3446 17.125C87.7279 16.977 87.2099 16.903 86.7906 16.903Z" fill="black"/>
<path d="M101.186 7.098C101.186 6.876 101.174 6.654 101.149 6.432C101.149 6.18533 101.149 5.914 101.149 5.618C101.149 4.82866 101.174 3.99 101.223 3.102C101.273 2.214 101.322 1.46167 101.371 0.844998L107.957 0.955999C107.883 1.79466 107.797 2.74433 107.698 3.805C107.624 4.86567 107.575 5.96333 107.55 7.098H101.186ZM101.038 33.59C100.964 32.0607 100.915 30.4327 100.89 28.706C100.866 26.9547 100.853 25.2033 100.853 23.452C100.853 21.158 100.878 18.9257 100.927 16.755C100.977 14.5843 101.038 12.611 101.112 10.835L107.476 10.798C107.378 11.9327 107.316 13.3387 107.291 15.016C107.267 16.6687 107.254 18.4077 107.254 20.233C107.254 22.0337 107.267 23.8097 107.291 25.561C107.316 27.3123 107.341 28.9033 107.365 30.334C107.415 31.74 107.452 32.8253 107.476 33.59H101.038ZM121.931 33.997C119.859 33.997 117.948 33.5653 116.196 32.702C114.445 31.8387 113.039 30.6053 111.978 29.002C110.918 27.374 110.387 25.4377 110.387 23.193C110.387 20.677 110.881 18.4693 111.867 16.57C112.854 14.6707 114.235 13.203 116.011 12.167C117.787 11.1063 119.859 10.576 122.227 10.576C124.497 10.576 126.421 11.0447 127.999 11.982C129.578 12.8947 130.984 14.35 132.217 16.348L127.074 19.9C126.384 18.79 125.681 17.9513 124.965 17.384C124.25 16.792 123.276 16.496 122.042 16.496C120.365 16.496 119.008 17.088 117.972 18.272C116.936 19.4313 116.418 20.9853 116.418 22.934C116.418 24.0687 116.69 24.9937 117.232 25.709C117.8 26.4243 118.49 26.9547 119.304 27.3C120.118 27.6453 120.883 27.818 121.598 27.818C122.338 27.818 123.054 27.7317 123.744 27.559C124.435 27.3617 125.089 26.9423 125.705 26.301C126.322 25.6597 126.877 24.6853 127.37 23.378L132.92 26.338C132.18 27.6947 131.354 28.9527 130.441 30.112C129.529 31.2713 128.394 32.2087 127.037 32.924C125.705 33.6393 124.003 33.997 121.931 33.997ZM135.63 33.701C135.531 32.517 135.445 31 135.371 29.15C135.321 27.3 135.297 25.2897 135.297 23.119C135.297 21.195 135.309 19.2093 135.334 17.162C135.383 15.1147 135.445 13.1043 135.519 11.131C135.617 9.133 135.716 7.27067 135.815 5.544C135.938 3.79266 136.074 2.26333 136.222 0.955999L142.66 1.4C142.314 3.916 142.043 6.469 141.846 9.059C141.673 11.6243 141.562 14.239 141.513 16.903C142.894 15.941 144.497 14.9297 146.323 13.869C148.173 12.7837 150.393 11.5627 152.983 10.206L156.461 16.015C153.797 16.8537 151.441 17.8157 149.394 18.901C147.346 19.9617 145.669 21.0347 144.362 22.12C144.115 22.2927 143.955 22.416 143.881 22.49C143.807 22.564 143.77 22.6133 143.77 22.638C143.77 22.786 144.177 23.0573 144.991 23.452C146.076 24.0193 147.198 24.5743 148.358 25.117C149.517 25.6597 150.812 26.2147 152.243 26.782C153.673 27.3247 155.314 27.9043 157.164 28.521L154.611 33.997C152.366 33.331 150.121 32.4923 147.877 31.481C145.632 30.4697 143.597 29.446 141.772 28.41C141.796 29.2487 141.833 30.0997 141.883 30.963C141.957 31.8263 142.018 32.6897 142.068 33.553L135.63 33.701Z" fill="#00C68F"/>
</svg>
